<?xml version="1.0" encoding="UTF-8"?>
<!DOCTYPE svg PUBLIC "-//W3C//DTD SVG 1.1//EN" "http://www.w3.org/Graphics/SVG/1.1/DTD/svg11.dtd">
<svg version="1.1" xmlns="http://www.w3.org/2000/svg" xmlns:xlink="http://www.w3.org/1999/xlink" x="0" y="0" viewBox="0, 0, 1900, 1900">
  <g id="clock">
    <path d="M945.954,951.357 L1647.266,1356.259 C1576.19,1479.365 1473.962,1581.593 1350.857,1652.668 L945.954,951.357 z M945.954,951.357 L136.15,951.357 C136.15,1093.507 173.568,1233.154 244.643,1356.259 L945.954,951.357 z M945.954,141.552 L945.954,951.357 L1350.856,250.046 C1227.751,178.971 1088.105,141.552 945.954,141.552 z" fill="#FFFFFF" opacity="0.255"/>
    <path d="M945.954,951.357 L1350.857,250.046 C1473.962,321.121 1576.19,423.349 1647.266,546.455 L945.954,951.357 M945.954,951.357 L244.643,546.455 C173.568,669.561 136.15,809.207 136.15,951.357 L945.954,951.357 M945.954,951.357 L945.954,1761.162 C1088.105,1761.162 1227.751,1723.744 1350.857,1652.668 L945.954,951.357" fill="#FFFFFF" opacity="0.349"/>
    <path d="M945.954,951.357 L1647.266,546.455 C1718.341,669.561 1755.759,809.207 1755.759,951.357 L945.954,951.357 M945.954,951.357 L541.052,250.046 C417.946,321.121 315.718,423.349 244.643,546.455 L945.954,951.357 M945.954,951.357 L541.052,1652.668 C664.158,1723.744 803.804,1761.162 945.954,1761.162 L945.954,951.357" fill="#FFFFFF" opacity="0.451"/>
    <path d="M945.954,951.357 L1755.759,951.357 C1755.759,1093.507 1718.341,1233.154 1647.266,1356.259 L945.954,951.357 M945.954,951.357 L945.954,141.553 C803.804,141.553 664.158,178.971 541.052,250.046 L945.954,951.357 M945.954,951.357 L244.643,1356.259 C315.718,1479.365 417.946,1581.593 541.052,1652.668 L945.954,951.357" fill="#FFFFFF" opacity="0.55"/>
    <path d="M555.484,27.875 C565.602,27.831 573.961,30.828 579.077,39.982 L609.12,102.969 C717.38,59.152 834.002,38.4 950.5,36.796 C1458.381,36.796 1870.1,448.515 1870.1,956.396 C1870.076,1025.655 1862.442,1094.917 1846.863,1162.411 L1779.618,1160.669 C1790.071,1119.155 1802.633,1078.157 1810.16,1035.962 C1814.978,1007.473 1817.762,978.67 1820.059,949.881 C1817.635,470.878 1426.733,89.809 950.5,86.796 C665.782,86.018 390.832,231.375 231.397,467.372 L216.785,434.081 L193.444,434.23 C204.878,417.415 198.095,427.213 213.999,404.98 L161.199,352.181 L347.384,165.996 L400.667,219.278 L399.575,220.37 C426.995,199.62 455.868,180.89 485.25,163.062 L454.814,99.252 C449.113,87.299 456.91,71.686 472.229,64.38 L541.017,31.569 C546.111,29.008 549.981,28.576 555.484,27.875 z" fill="#FFFFFF" opacity="0.85"/>
    <path d="M75.74,299.21 L297.578,77.372 C312.345,62.605 336.289,62.605 351.056,77.372 L351.056,77.372 C365.824,92.14 365.824,116.083 351.056,130.851 L129.219,352.688 C114.451,367.456 90.508,367.456 75.74,352.688 L75.74,352.688 C60.973,337.921 60.973,313.977 75.74,299.21 z" fill="#FFFFFF" opacity="0.85"/>
    <path d="M253.704,1476.648 C418.041,1697.764 675.959,1824.257 950.5,1825.996 L955.712,1825.963 C955.551,1825.938 955.39,1825.91 955.229,1825.881 C956.359,1825.926 957.489,1825.934 958.619,1825.945 C968.654,1825.881 960.7,1825.952 982.478,1825.4 C1190.103,1813.526 1385.826,1717.574 1536.524,1576.608 C1561.178,1585.099 1588.785,1588.088 1614.145,1580.842 C1622.945,1578.328 1624.093,1577.428 1632.03,1573.708 C1457.319,1767.512 1210.629,1874.348 950.5,1875.996 C651.568,1876.521 359.929,1724.991 192.151,1476.648 L253.704,1476.648 z" fill="#FFFFFF" opacity="0.85"/>
    <path d="M154.561,495.621 L154.561,605.663 C105.106,715.658 81.661,836.106 80.9,956.396 C81.274,1084.289 108.582,1212.741 164.21,1328.188 L164.21,1433.404 C76.088,1290.414 31.959,1123.841 30.9,956.396 C30.399,794.887 74.171,635.428 154.561,495.621 z" fill="#FFFFFF" opacity="0.85"/>
  </g>
  <g id="text">
    <path d="M1571.88,1179.527 L1631.601,1179.527 C1631.601,1179.527 1672.093,1320.297 1677.158,1338.699 C1684.483,1365.311 1687.488,1397.041 1687.488,1397.041 L1689.281,1397.184 Q1697.964,1369.244 1705.416,1350.907 C1705.416,1350.907 1776.846,1179.214 1776.846,1179.214 C1776.846,1179.214 1841.895,1179.214 1841.895,1179.214 C1841.895,1179.214 1732.588,1419.269 1699.723,1488.625 C1662.992,1570.39 1602.118,1565.845 1602.118,1565.845 Q1566.622,1564.891 1548.852,1557.956 C1548.852,1557.956 1574.125,1520.335 1575.305,1518.243 C1578.351,1520.335 1584.686,1520.814 1584.686,1520.814 Q1625.763,1518.981 1642.702,1480.895 C1642.702,1480.895 1657.88,1449.999 1657.928,1449.425 C1657.982,1450.327 1571.88,1179.527 1571.88,1179.527 z" fill="#FFFFFF" id="y"/>
    <path d="M1521.285,1177.614 Q1538.619,1177.614 1549.85,1180.055 L1544.235,1233.522 Q1532.028,1230.592 1518.844,1230.592 Q1484.42,1230.592 1463.058,1253.053 Q1441.696,1275.514 1441.696,1311.403 L1441.696,1452.516 L1384.323,1452.516 L1384.323,1182.497 L1429.244,1182.497 L1436.813,1230.104 L1439.742,1230.104 Q1453.17,1205.934 1474.777,1191.774 Q1496.383,1177.614 1521.285,1177.614 z" fill="#FFFFFF" id="r"/>
    <path d="M1337.405,1317.018 Q1337.405,1383.18 1303.469,1420.29 Q1269.533,1457.399 1208.987,1457.399 Q1171.145,1457.399 1142.092,1440.309 Q1113.039,1423.219 1097.414,1391.237 Q1081.789,1359.254 1081.789,1317.018 Q1081.789,1251.344 1115.481,1214.479 Q1149.172,1177.614 1210.451,1177.614 Q1269.045,1177.614 1303.225,1215.333 Q1337.405,1253.053 1337.405,1317.018 z M1140.871,1317.018 Q1140.871,1410.524 1209.963,1410.524 Q1278.323,1410.524 1278.323,1317.018 Q1278.323,1224.489 1209.475,1224.489 Q1173.342,1224.489 1157.107,1248.415 Q1140.871,1272.34 1140.871,1317.018 z" fill="#FFFFFF" id="o"/>
    <path d="M1006.955,1411.012 Q1027.951,1411.012 1048.947,1404.42 L1048.947,1447.633 Q1039.426,1451.784 1024.411,1454.591 Q1009.397,1457.399 993.283,1457.399 Q911.74,1457.399 911.74,1371.461 L911.74,1225.954 L874.875,1225.954 L874.875,1200.563 L914.426,1179.567 L933.957,1122.438 L969.358,1122.438 L969.358,1182.497 L1046.262,1182.497 L1046.262,1225.954 L969.358,1225.954 L969.358,1370.485 Q969.358,1391.237 979.734,1401.125 Q990.11,1411.012 1006.955,1411.012 z" fill="#FFFFFF" id="t"/>
    <path d="M846.358,1375.612 Q846.358,1415.163 817.549,1436.281 Q788.74,1457.399 735.029,1457.399 Q681.074,1457.399 648.36,1441.042 L648.36,1391.481 Q695.967,1413.454 736.983,1413.454 Q789.961,1413.454 789.961,1381.471 Q789.961,1371.217 784.102,1364.381 Q778.242,1357.545 764.815,1350.221 Q751.387,1342.897 727.461,1333.62 Q680.83,1315.553 664.351,1297.487 Q647.871,1279.42 647.871,1250.612 Q647.871,1215.944 675.825,1196.779 Q703.779,1177.614 751.875,1177.614 Q799.483,1177.614 841.963,1196.901 L823.408,1240.114 Q779.707,1222.047 749.922,1222.047 Q704.512,1222.047 704.512,1247.926 Q704.512,1260.622 716.353,1269.411 Q728.194,1278.2 767.988,1293.581 Q801.436,1306.52 816.572,1317.262 Q831.709,1328.004 839.033,1342.042 Q846.358,1356.081 846.358,1375.612 z" fill="#FFFFFF" id="s"/>
    <path d="M590.93,1452.516 L533.557,1452.516 L533.557,1182.497 L590.93,1182.497 z M530.139,1110.963 Q530.139,1095.583 538.562,1087.282 Q546.985,1078.981 562.61,1078.981 Q577.746,1078.981 586.169,1087.282 Q594.592,1095.583 594.592,1110.963 Q594.592,1125.612 586.169,1134.035 Q577.746,1142.458 562.61,1142.458 Q546.985,1142.458 538.562,1134.035 Q530.139,1125.612 530.139,1110.963 z" fill="#FFFFFF" id="i"/>
    <path d="M469.666,1452.516 L411.072,1452.516 L411.072,1291.627 L246.522,1291.627 L246.522,1452.516 L188.172,1452.516 L188.172,1095.583 L246.522,1095.583 L246.522,1241.579 L411.072,1241.579 L411.072,1095.583 L469.666,1095.583 z" fill="#FFFFFF" id="H"/>
    <path d="M1700.472,1034.279 L1700.472,908.958 Q1700.472,885.272 1689.69,873.606 Q1678.907,861.94 1655.929,861.94 Q1625.526,861.94 1611.386,878.378 Q1597.245,894.817 1597.245,932.643 L1597.245,1034.279 L1567.903,1034.279 L1567.903,840.552 L1591.766,840.552 L1596.538,867.066 L1597.952,867.066 Q1606.967,852.749 1623.229,844.883 Q1639.49,837.017 1659.464,837.017 Q1694.462,837.017 1712.138,853.897 Q1729.814,870.778 1729.814,907.897 L1729.814,1034.279 z" fill="#FFFFFF" id="n"/>
    <path d="M1504.711,1034.279 L1498.878,1006.705 L1497.464,1006.705 Q1482.97,1024.911 1468.564,1031.362 Q1454.158,1037.814 1432.594,1037.814 Q1403.782,1037.814 1387.432,1022.966 Q1371.082,1008.119 1371.082,980.721 Q1371.082,922.038 1464.941,919.209 L1497.818,918.149 L1497.818,906.129 Q1497.818,883.328 1488.007,872.457 Q1478.197,861.586 1456.633,861.586 Q1432.417,861.586 1401.838,876.434 L1392.823,853.986 Q1407.141,846.208 1424.198,841.79 Q1441.255,837.371 1458.401,837.371 Q1493.045,837.371 1509.749,852.749 Q1526.452,868.126 1526.452,902.064 L1526.452,1034.279 z M1438.427,1013.598 Q1465.824,1013.598 1481.467,998.574 Q1497.11,983.549 1497.11,956.505 L1497.11,939.006 L1467.769,940.244 Q1432.771,941.481 1417.304,951.114 Q1401.838,960.748 1401.838,981.075 Q1401.838,996.983 1411.471,1005.291 Q1421.105,1013.598 1438.427,1013.598 z" fill="#FFFFFF" id="a"/>
    <path d="M1335.358,1034.279 L1306.016,1034.279 L1306.016,840.552 L1335.358,840.552 z M1303.541,788.055 Q1303.541,777.98 1308.49,773.296 Q1313.44,768.612 1320.863,768.612 Q1327.934,768.612 1333.06,773.384 Q1338.186,778.157 1338.186,788.055 Q1338.186,797.954 1333.06,802.814 Q1327.934,807.675 1320.863,807.675 Q1313.44,807.675 1308.49,802.814 Q1303.541,797.954 1303.541,788.055 z" fill="#FFFFFF" id="i"/>
    <path d="M1245.792,1013.598 Q1253.569,1013.598 1260.817,1012.449 Q1268.064,1011.3 1272.306,1010.063 L1272.306,1032.511 Q1267.533,1034.809 1258.254,1036.312 Q1248.974,1037.814 1241.55,1037.814 Q1185.341,1037.814 1185.341,978.6 L1185.341,863.354 L1157.59,863.354 L1157.59,849.213 L1185.341,837.017 L1197.714,795.656 L1214.683,795.656 L1214.683,840.552 L1270.892,840.552 L1270.892,863.354 L1214.683,863.354 L1214.683,977.363 Q1214.683,994.862 1222.99,1004.23 Q1231.298,1013.598 1245.792,1013.598 z" fill="#FFFFFF" id="t"/>
    <path d="M1140.495,981.428 Q1140.495,1008.472 1120.345,1023.143 Q1100.194,1037.814 1063.782,1037.814 Q1025.249,1037.814 1003.685,1025.618 L1003.685,998.397 Q1017.648,1005.467 1033.645,1009.533 Q1049.642,1013.598 1064.489,1013.598 Q1087.468,1013.598 1099.841,1006.263 Q1112.214,998.927 1112.214,983.903 Q1112.214,972.59 1102.404,964.548 Q1092.594,956.505 1064.136,945.546 Q1037.092,935.471 1025.691,927.959 Q1014.29,920.447 1008.722,910.902 Q1003.154,901.357 1003.154,888.1 Q1003.154,864.415 1022.421,850.716 Q1041.688,837.017 1075.272,837.017 Q1106.558,837.017 1136.43,849.744 L1126.001,873.606 Q1096.836,861.586 1073.151,861.586 Q1052.293,861.586 1041.688,868.126 Q1031.082,874.667 1031.082,886.156 Q1031.082,893.933 1035.059,899.413 Q1039.036,904.892 1047.874,909.841 Q1056.712,914.791 1081.812,924.159 Q1116.279,936.708 1128.387,949.435 Q1140.495,962.162 1140.495,981.428 z" fill="#FFFFFF" id="s"/>
    <path d="M963.309,1034.279 L933.967,1034.279 L933.967,840.552 L963.309,840.552 z M931.492,788.055 Q931.492,777.98 936.441,773.296 Q941.391,768.612 948.814,768.612 Q955.885,768.612 961.011,773.384 Q966.137,778.157 966.137,788.055 Q966.137,797.954 961.011,802.814 Q955.885,807.675 948.814,807.675 Q941.391,807.675 936.441,802.814 Q931.492,797.954 931.492,788.055 z" fill="#FFFFFF" id="i"/>
    <path d="M879.576,837.017 Q892.479,837.017 902.731,839.138 L898.666,866.359 Q886.646,863.708 877.455,863.708 Q853.946,863.708 837.243,882.797 Q820.539,901.887 820.539,930.345 L820.539,1034.279 L791.197,1034.279 L791.197,840.552 L815.413,840.552 L818.771,876.434 L820.186,876.434 Q830.968,857.521 846.169,847.269 Q861.37,837.017 879.576,837.017 z" fill="#FFFFFF" id="r"/>
    <path d="M719.581,1034.279 L719.581,908.958 Q719.581,885.272 708.799,873.606 Q698.017,861.94 675.038,861.94 Q644.459,861.94 630.407,878.555 Q616.354,895.17 616.354,932.997 L616.354,1034.279 L587.013,1034.279 L587.013,759.244 L616.354,759.244 L616.354,842.497 Q616.354,857.521 614.94,867.419 L616.708,867.419 Q625.369,853.456 641.366,845.413 Q657.362,837.371 677.866,837.371 Q713.395,837.371 731.159,854.251 Q748.923,871.131 748.923,907.897 L748.923,1034.279 z" fill="#FFFFFF" id="h"/>
    <path d="M483.711,799.014 Q441.112,799.014 416.455,827.384 Q391.797,855.753 391.797,905.069 Q391.797,955.798 415.571,983.461 Q439.345,1011.124 483.357,1011.124 Q510.401,1011.124 545.046,1001.402 L545.046,1027.739 Q518.179,1037.814 478.762,1037.814 Q421.669,1037.814 390.648,1003.169 Q359.627,968.525 359.627,904.715 Q359.627,864.768 374.563,834.719 Q389.499,804.67 417.692,788.409 Q445.885,772.147 484.064,772.147 Q524.719,772.147 555.121,786.995 L542.395,812.801 Q513.053,799.014 483.711,799.014 z" fill="#FFFFFF" id="C"/>
    <path d="M324.418,831.527 L301.215,831.527 L301.215,911.277 L280.934,911.277 L280.934,831.527 L265.293,831.527 L265.293,822.074 L280.934,815.886 L280.934,809.699 Q280.934,792.855 288.84,784.734 Q296.746,776.613 312.989,776.613 Q323.645,776.613 333.957,780.136 L328.629,795.433 Q321.153,793.027 314.364,793.027 Q307.489,793.027 304.352,797.281 Q301.215,801.535 301.215,810.043 L301.215,816.23 L324.418,816.23 z" fill="#FFFFFF" id="f"/>
    <path d="M255.52,863.582 Q255.52,886.871 243.575,899.933 Q231.629,912.996 210.317,912.996 Q196.996,912.996 186.77,906.98 Q176.543,900.964 171.043,889.707 Q165.543,878.449 165.543,863.582 Q165.543,840.464 177.403,827.488 Q189.262,814.511 210.832,814.511 Q231.457,814.511 243.489,827.789 Q255.52,841.066 255.52,863.582 z M186.34,863.582 Q186.34,896.496 210.66,896.496 Q234.723,896.496 234.723,863.582 Q234.723,831.011 210.489,831.011 Q197.77,831.011 192.055,839.433 Q186.34,847.855 186.34,863.582 z" fill="#FFFFFF" id="o"/>
    <path d="M1627.206,662.765 Q1627.206,689.284 1607.044,703.543 Q1586.882,717.802 1549.827,717.802 Q1510.229,717.802 1486.979,705.632 L1486.979,686.196 Q1516.768,701.091 1549.827,701.091 Q1579.071,701.091 1594.238,691.373 Q1609.405,681.655 1609.405,665.489 Q1609.405,650.595 1597.326,640.423 Q1585.247,630.251 1557.638,620.443 Q1528.03,609.726 1516.042,602.006 Q1504.054,594.286 1497.969,584.568 Q1491.884,574.851 1491.884,560.864 Q1491.884,538.704 1510.502,525.808 Q1529.12,512.911 1562.542,512.911 Q1594.511,512.911 1623.21,524.9 L1616.489,541.247 Q1587.427,529.259 1562.542,529.259 Q1538.384,529.259 1524.216,537.251 Q1510.048,545.243 1510.048,559.411 Q1510.048,574.851 1521.037,584.114 Q1532.026,593.378 1563.995,604.821 Q1590.696,614.448 1602.866,622.168 Q1615.036,629.888 1621.121,639.696 Q1627.206,649.505 1627.206,662.765 z" fill="#FFFFFF" id="s"/>
    <path d="M1430.306,701.818 Q1447.38,701.818 1460.095,698.911 L1460.095,713.443 Q1447.016,717.802 1429.942,717.802 Q1403.786,717.802 1391.344,703.816 Q1378.901,689.829 1378.901,659.859 L1378.901,532.347 L1349.657,532.347 L1349.657,521.812 L1378.901,513.638 L1387.983,468.954 L1397.247,468.954 L1397.247,516.726 L1455.19,516.726 L1455.19,532.347 L1397.247,532.347 L1397.247,657.316 Q1397.247,680.021 1405.239,690.919 Q1413.231,701.818 1430.306,701.818 z" fill="#FFFFFF" id="t"/>
    <path d="M1310.436,714.169 L1310.436,586.112 Q1310.436,556.323 1297.903,542.791 Q1285.37,529.259 1259.032,529.259 Q1223.612,529.259 1207.174,547.151 Q1190.735,565.042 1190.735,605.185 L1190.735,714.169 L1172.753,714.169 L1172.753,516.726 L1188.011,516.726 L1191.462,543.79 L1192.552,543.79 Q1211.806,512.911 1261.03,512.911 Q1328.237,512.911 1328.237,585.023 L1328.237,714.169 z" fill="#FFFFFF" id="n"/>
    <path d="M1065.836,717.802 Q1022.787,717.802 998.72,691.282 Q974.652,664.763 974.652,616.991 Q974.652,569.765 997.902,541.338 Q1021.152,512.911 1060.568,512.911 Q1095.443,512.911 1115.606,537.251 Q1135.768,561.591 1135.768,603.368 L1135.768,617.9 L993.543,617.9 Q993.906,658.587 1012.524,680.021 Q1031.143,701.454 1065.836,701.454 Q1082.729,701.454 1095.534,699.093 Q1108.34,696.732 1127.957,688.921 L1127.957,705.269 Q1111.246,712.534 1097.078,715.168 Q1082.91,717.802 1065.836,717.802 z M1060.568,528.896 Q1032.051,528.896 1014.795,547.695 Q997.539,566.495 994.633,601.915 L1116.695,601.915 Q1116.695,567.585 1101.801,548.24 Q1086.906,528.896 1060.568,528.896 z" fill="#FFFFFF" id="e"/>
    <path d="M923.357,714.169 L923.357,584.659 Q923.357,555.778 912.096,542.519 Q900.834,529.259 877.584,529.259 Q847.25,529.259 832.719,545.97 Q818.188,562.681 818.188,598.464 L818.188,714.169 L799.842,714.169 L799.842,579.21 Q799.842,529.259 754.068,529.259 Q723.008,529.259 708.84,547.332 Q694.672,565.405 694.672,605.185 L694.672,714.169 L676.689,714.169 L676.689,516.726 L691.584,516.726 L695.398,543.79 L696.488,543.79 Q704.662,529.077 719.738,520.994 Q734.814,512.911 752.979,512.911 Q799.66,512.911 812.92,547.968 L813.646,547.968 Q823.273,531.075 839.53,521.993 Q855.787,512.911 876.494,512.911 Q908.826,512.911 924.992,530.167 Q941.158,547.423 941.158,585.023 L941.158,714.169 z" fill="#FFFFFF" id="m"/>
    <path d="M641.016,615.175 Q641.016,663.491 617.584,690.647 Q594.152,717.802 552.92,717.802 Q526.945,717.802 507.146,705.269 Q487.348,692.735 476.812,669.304 Q466.277,645.872 466.277,615.175 Q466.277,566.859 489.709,539.885 Q513.141,512.911 554.01,512.911 Q594.697,512.911 617.856,540.248 Q641.016,567.585 641.016,615.175 z M485.168,615.175 Q485.168,655.862 503.06,678.658 Q520.951,701.454 553.646,701.454 Q586.342,701.454 604.233,678.658 Q622.125,655.862 622.125,615.175 Q622.125,574.306 604.052,551.782 Q585.979,529.259 553.283,529.259 Q520.588,529.259 502.878,551.692 Q485.168,574.124 485.168,615.175 z" fill="#FFFFFF" id="o"/>
    <path d="M295.605,714.169 L196.611,468.954 L195.157,468.954 Q196.611,491.478 196.611,515.091 L196.611,714.169 L178.81,714.169 L178.81,448.611 L207.509,448.611 L301.599,682.2 L302.689,682.2 L396.779,448.611 L424.751,448.611 L424.751,714.169 L406.042,714.169 L406.042,512.911 Q406.042,491.841 408.222,469.318 L406.769,469.318 L307.411,714.169 z" fill="#FFFFFF" id="M"/>
  </g>
</svg>
